<svg width="306" height="68" viewBox="0 0 306 68" fill="none" xmlns="http://www.w3.org/2000/svg">
<path fill-rule="evenodd" clip-rule="evenodd" d="M39.8638 35.3701C33.6518 37.7041 27.4388 40.1101 21.1908 42.3731C18.5328 43.3431 15.7318 44.0241 12.8588 43.8451C10.7048 43.7011 8.58575 43.1991 7.54475 40.9731C6.96975 39.7161 6.61075 38.3501 6.07175 36.9141C3.77375 38.9971 1.87075 41.5831 0.21875 44.4561C0.46975 44.5991 0.64975 44.7431 0.86475 44.8141C3.37875 45.5691 5.89275 46.3591 8.44175 47.0411C9.55475 47.3281 10.7768 47.5801 11.8538 47.4721C14.1158 47.1841 16.4498 46.8261 18.6048 46.1071C22.6628 44.7791 26.6128 43.1631 30.6348 41.6901C34.5848 40.2181 38.4988 38.5301 42.5568 37.4171C45.9328 36.4831 49.3798 36.7701 52.6118 38.4231C55.4848 39.8941 56.5618 42.3011 55.7368 45.4611C55.5568 46.0711 55.3047 46.6461 55.0537 47.3281C58.3937 46.7541 61.5178 46.0711 64.6418 44.4561C63.2778 42.5531 62.0568 40.7571 60.7278 39.1051C58.3578 36.0891 55.2698 34.1131 51.4268 33.6831C50.7088 33.6101 49.9908 33.5751 49.2728 33.5751C46.0408 33.5031 42.9158 34.2571 39.8638 35.3701Z" fill="#5BBD71"/>
<mask id="mask0_2704_2728" style="mask-type:luminance" maskUnits="userSpaceOnUse" x="0" y="20" width="65" height="15">
<path d="M0 20.6094H64.5668V34.5577H0V20.6094Z" fill="white"/>
</mask>
<g mask="url(#mask0_2704_2728)">
<path fill-rule="evenodd" clip-rule="evenodd" d="M0 23.3384C0.395 24.0214 0.575 24.3084 0.754 24.5954C2.011 26.2474 3.232 27.8634 4.489 29.4804C6.249 31.7774 8.547 33.2854 11.312 34.0044C15.047 35.0094 18.781 34.5424 22.373 33.4294C25.209 32.5314 27.938 31.4184 30.74 30.3774C34.187 29.0844 37.599 27.6844 41.046 26.4634C44.529 25.2414 48.048 24.0214 51.819 24.2364C55.087 24.4514 56.882 25.4214 57.924 28.6534C58.175 29.4804 58.211 30.3774 58.391 31.4184C60.833 29.0484 62.808 26.4984 64.567 23.4464C62.844 22.8364 61.335 22.2614 59.791 21.7944C56.272 20.6814 52.609 20.3224 49.018 21.0764C43.811 22.1904 38.963 24.4164 34.007 26.3554C30.345 27.7914 26.718 29.3354 22.947 30.4484C19.248 31.5264 15.478 31.4184 11.922 29.5514C9.552 28.3304 7.685 25.5294 8.942 22.3694C9.157 21.8664 9.409 21.4004 9.624 20.8974C9.552 20.7894 9.517 20.6814 9.445 20.6094C6.392 21.5074 3.304 22.4044 0 23.3384Z" fill="#5BBD71"/>
</g>
<path fill-rule="evenodd" clip-rule="evenodd" d="M12.6732 15.8333C12.7092 16.6233 13.0682 17.4493 13.4992 18.0963C14.8272 20.1783 16.9822 20.9682 19.2802 21.1842C24.4162 21.7232 29.0482 20.0343 33.5732 17.7362C36.5902 16.2282 39.6062 14.6843 42.8022 13.6063C45.7822 12.6013 48.7632 12.9963 50.9892 15.6893C51.2052 15.9403 51.4922 16.1563 51.7432 16.4073C51.8872 16.3723 52.0312 16.3362 52.1742 16.2642V6.64025C47.7572 7.50225 43.8432 9.40525 40.0722 11.6673C36.1942 14.0023 32.2802 16.2643 27.8992 17.7003C24.9542 18.6703 22.0462 18.5983 19.1732 17.5573C16.6232 16.6233 16.0842 14.4333 17.8802 12.4573C18.0242 12.3133 18.2392 12.1703 18.4192 12.0623C19.4962 11.3803 20.6092 10.6982 22.0092 9.83625C18.7062 8.65125 15.6532 7.53825 12.2422 6.28125C12.3852 9.72925 12.4572 12.7803 12.6732 15.8333Z" fill="#5BBD71"/>
<path fill-rule="evenodd" clip-rule="evenodd" d="M41.2574 46.8628C36.7684 47.2948 32.8544 49.4488 28.8684 51.3878C26.6774 52.4658 24.4874 53.6858 22.1534 54.3688C20.5014 54.8358 18.5264 54.8718 16.8744 54.4398C15.4024 54.0458 14.1454 52.7528 12.7804 51.8188C12.0264 54.9068 12.4934 58.1388 12.3494 61.3708C12.6014 61.4068 12.7444 61.4427 12.8884 61.4067C16.5514 60.4367 20.0704 59.0728 23.3744 57.1338C26.9294 55.0868 30.5204 53.1117 34.1834 51.3517C37.8464 49.5917 41.6884 48.8018 45.6744 50.6338C46.8594 51.1728 47.7574 51.8898 47.9014 53.1828C48.0444 54.4048 47.2544 55.2658 46.2854 55.9128C45.2074 56.6308 44.0584 57.3128 42.6944 58.2108C45.9254 59.3958 49.0144 60.4728 52.2824 61.6588C52.2824 58.6768 52.4614 56.0197 52.2104 53.4347C52.0664 51.7467 51.6714 50.0228 50.0914 48.7308C48.1884 47.1508 45.9624 46.7188 43.6994 46.7188C42.9094 46.7188 42.0834 46.7918 41.2574 46.8628Z" fill="#5BBD71"/>
<path fill-rule="evenodd" clip-rule="evenodd" d="M26.9297 59.8281C28.1507 62.8081 30.1257 65.3221 32.3517 67.8361C34.5427 65.3941 36.4817 62.8451 37.7747 59.8281H26.9297Z" fill="#5BBD71"/>
<mask id="mask1_2704_2728" style="mask-type:luminance" maskUnits="userSpaceOnUse" x="26" y="0" width="13" height="9">
<path d="M26.8594 0H38.2434V8.4752H26.8594V0Z" fill="white"/>
</mask>
<g mask="url(#mask1_2704_2728)">
<path fill-rule="evenodd" clip-rule="evenodd" d="M26.8594 8.476C30.6664 7.757 34.2214 7.866 38.2434 8.476C36.2324 5.531 34.4004 2.802 32.4974 0C30.1634 2.73 28.2244 5.316 26.8594 8.476Z" fill="#5BBD71"/>
</g>
<path fill-rule="evenodd" clip-rule="evenodd" d="M177.688 9.4055C179.187 9.4055 180.621 9.37795 182.052 9.43168C182.306 9.44132 182.602 9.74786 182.786 9.98827C186.051 14.2405 189.3 18.5032 192.554 22.7637C192.671 22.9159 192.794 23.0634 193.025 23.352V9.4737H198.027V32.3243C196.673 32.3243 195.301 32.3566 193.934 32.2953C193.691 32.2836 193.432 31.9061 193.239 31.654C189.963 27.3763 186.696 23.0909 183.426 18.8083C183.248 18.5762 183.054 18.3571 182.731 17.9679V32.2637H177.688V9.4055Z" fill="black"/>
<path fill-rule="evenodd" clip-rule="evenodd" d="M112.7 20.4743C114.69 20.4743 116.599 20.5521 118.498 20.4481C119.875 20.3737 120.995 19.7062 121.436 18.2844C122.124 16.067 120.814 14.1823 118.395 14.0411C116.577 13.935 114.749 14.0094 112.925 14.0101C112.855 14.0101 112.784 14.0776 112.7 14.1203V20.4743ZM107.641 9.40238H109.646C112.609 9.40238 115.573 9.37 118.536 9.41271C120.743 9.44509 122.773 10.0141 124.531 11.4662C127.551 13.9591 128.086 21.3119 122.657 23.8104C122.433 23.913 122.21 24.0191 121.885 24.17C123.723 26.8558 125.536 29.5058 127.413 32.2502C127.114 32.286 126.911 32.3315 126.708 32.3322C125.213 32.3384 123.716 32.3108 122.222 32.3487C121.679 32.3625 121.377 32.1696 121.084 31.7287C119.707 29.6587 118.283 27.6211 116.902 25.5539C116.626 25.1419 116.335 24.9539 115.826 24.9739C114.809 25.0138 113.79 24.9856 112.682 24.9856V32.286H107.641V9.40238Z" fill="black"/>
<path fill-rule="evenodd" clip-rule="evenodd" d="M98.5886 16.0251C97.2206 14.9271 95.805 14.0695 94.067 13.8022C89.9649 13.1733 86.4463 15.8749 86.0495 20.0135C85.6913 23.7554 87.6159 26.8752 90.921 27.8148C93.0682 28.4258 95.1354 28.1117 97.1111 27.0963C97.523 26.8848 97.7145 26.6183 97.6883 26.1271C97.6429 25.2812 97.6759 24.4312 97.6759 23.4971H92.5998V19.1821H102.581V21.0923C102.58 23.5501 102.593 26.0079 102.564 28.4658C102.561 28.7799 102.428 29.1925 102.204 29.3888C98.1698 32.9392 91.3412 33.774 86.7032 31.3142C82.3862 29.0251 79.9828 24.0785 80.7984 19.1594C81.6608 13.9558 85.424 9.99972 90.361 9.23096C94.3419 8.61099 98.0872 9.1669 101.33 11.7838C101.458 11.8865 101.574 12.0029 101.771 12.1813C100.711 13.4612 99.6626 14.728 98.5886 16.0251Z" fill="black"/>
<path fill-rule="evenodd" clip-rule="evenodd" d="M247.437 23.527V19.1989H257.411V20.2405C257.411 22.9745 257.422 25.7093 257.395 28.444C257.391 28.7581 257.264 29.1708 257.043 29.3685C253.124 32.8692 246.483 33.7516 241.765 31.4488C237.105 29.1756 235.004 24.3006 235.566 19.6212C236.36 13 241.463 8.81244 248.267 9.02323C251.387 9.12036 254.176 10.031 256.58 12.1857C255.507 13.4767 254.453 14.7441 253.377 16.0392C251.89 14.7669 250.275 13.9375 248.358 13.7274C243.91 13.2404 240.26 17.1407 240.848 21.7746C241.63 27.9611 247.676 29.3967 251.923 27.0718C252.15 26.9471 252.412 26.6489 252.425 26.4174C252.482 25.4868 252.449 24.5492 252.449 23.527H247.437Z" fill="black"/>
<path fill-rule="evenodd" clip-rule="evenodd" d="M154.891 32.2647V9.46094H172.159V13.8985H160.007V18.5062H170.729V23.0506H159.986V27.7651H172.318V32.2647H154.891Z" fill="black"/>
<path fill-rule="evenodd" clip-rule="evenodd" d="M149.562 27.7766V32.2899H132.141V9.47656H149.396V13.9314H137.215V18.5219H147.901V23.0497H137.215V27.7766H149.562Z" fill="black"/>
<path fill-rule="evenodd" clip-rule="evenodd" d="M262.578 9.42969H267.598V18.4068H276.868V9.47102H281.924V32.2837H276.89V23.1881H267.642V32.2748H262.578V9.42969Z" fill="black"/>
<path fill-rule="evenodd" clip-rule="evenodd" d="M305.641 9.47656V14.0905H298.752V32.2755H293.619V31.2994C293.619 25.8561 293.606 20.4135 293.634 14.9715C293.638 14.2737 293.431 14.0767 292.747 14.0939C291.031 14.1387 289.312 14.1091 287.595 14.1091H286.672V9.47656H305.641Z" fill="black"/>
<path fill-rule="evenodd" clip-rule="evenodd" d="M220.524 32.2892H204.102V9.45312H209.107V27.6512H220.524V32.2892Z" fill="black"/>
<path fill-rule="evenodd" clip-rule="evenodd" d="M225.383 32.2823H230.433V9.45312H225.383V32.2823Z" fill="black"/>
<path fill-rule="evenodd" clip-rule="evenodd" d="M99.8594 41.0711C100.428 41.0711 100.982 41.022 101.521 41.0936C101.754 41.1245 102.001 41.3662 102.165 41.5728C105.66 45.9911 109.145 50.4177 112.632 54.8421C112.808 55.0641 112.987 55.2822 113.262 55.6225V41.1168H115.286V59.3447C114.344 59.5028 113.624 59.4218 112.942 58.5358C109.454 54.0006 105.879 49.5316 102.333 45.0406C102.216 44.8924 102.088 44.7542 101.873 44.5042V59.3591H99.8594V41.0711Z" fill="black"/>
<path fill-rule="evenodd" clip-rule="evenodd" d="M141.214 42.9481C141.214 45.423 141.207 47.7332 141.235 50.0429C141.237 50.1635 141.544 50.3799 141.71 50.3821C143.544 50.4064 145.38 50.4301 147.214 50.3854C148.555 50.3524 149.807 49.9768 150.713 48.9128C152.54 46.7656 151.371 43.61 148.455 43.2235C146.106 42.9123 143.7 43.0263 141.214 42.9481ZM154.339 59.4033C153.43 59.4033 152.662 59.4336 151.9 59.3813C151.718 59.3686 151.524 59.1059 151.385 58.9209C149.829 56.8574 148.286 54.7834 146.728 52.7221C146.595 52.5464 146.372 52.3234 146.187 52.3201C144.555 52.2882 142.923 52.3014 141.229 52.3014V59.3549H139.125V41.1781C139.191 41.1412 139.228 41.1016 139.265 41.1016C142.362 41.128 145.465 41.0388 148.553 41.2233C151.21 41.3819 153.147 43.1673 153.553 45.4208C154.087 48.3814 152.697 50.7054 149.825 51.6438C149.491 51.7529 149.149 51.8399 148.734 51.9594C150.59 54.4249 152.417 56.8497 154.339 59.4033Z" fill="black"/>
<path fill-rule="evenodd" clip-rule="evenodd" d="M173.975 43.2257C173.531 43.7467 173.105 44.2468 172.653 44.7782C172.461 44.6367 172.287 44.5138 172.12 44.3828C169.678 42.468 166.25 42.1419 163.702 43.5831C161.232 44.9803 159.76 48.1414 160.137 51.1819C160.499 54.1006 161.814 56.3514 164.697 57.368C167.358 58.3064 169.885 57.83 172.217 56.2853C172.384 56.1746 172.592 55.9626 172.595 55.7941C172.626 54.3886 172.613 52.9816 172.613 51.5101H167.085V49.6448H174.615C174.631 49.8326 174.657 50.0006 174.658 50.1685C174.66 52.2442 174.667 54.3198 174.65 56.3943C174.648 56.6317 174.578 56.9527 174.416 57.0921C171.125 59.9293 166.125 60.5902 162.512 58.5625C159.101 56.6471 157.816 53.5361 157.929 49.7836C158.1 44.0452 163.018 40.0129 168.731 40.8323C170.55 41.0939 172.185 41.7355 173.614 42.8887C173.731 42.984 173.835 43.0952 173.975 43.2257Z" fill="black"/>
<path fill-rule="evenodd" clip-rule="evenodd" d="M81.6406 41.1016H94.8236V42.9564H83.7295V49.1755H93.6302V51.1333H83.7119V57.461H94.9596V59.3736H81.6406V41.1016Z" fill="black"/>
<path fill-rule="evenodd" clip-rule="evenodd" d="M120.914 59.3535V41.125H134.13V42.9699H123.019V49.1808H132.967V51.1094H123.03V57.4773H134.269V59.3535H120.914Z" fill="black"/>
<path fill-rule="evenodd" clip-rule="evenodd" d="M194.64 41.0661C194.202 41.7077 193.848 42.2314 193.489 42.7518C191.48 45.6574 189.477 48.5673 187.45 51.4602C187.127 51.9195 186.996 52.3722 187.002 52.9273C187.027 55.0448 187.012 57.1628 187.012 59.3409H184.886V58.6299C184.885 56.6644 184.901 54.7001 184.871 52.7351C184.866 52.3893 184.74 51.9955 184.545 51.7086C182.32 48.4434 180.069 45.1942 177.827 41.9406C177.656 41.6934 177.488 41.4434 177.234 41.0705C178.113 41.0705 178.855 41.0408 179.592 41.0914C179.773 41.1036 179.977 41.3481 180.102 41.532C181.917 44.1958 183.72 46.8673 185.526 49.5371C185.649 49.7183 185.775 49.8968 185.954 50.1539C186.123 49.9232 186.267 49.7404 186.397 49.5487C188.214 46.8871 190.039 44.2299 191.836 41.5557C192.093 41.1746 192.367 41.0309 192.812 41.0579C193.363 41.0925 193.917 41.0661 194.64 41.0661Z" fill="black"/>
</svg>
