<?xml version="1.0" encoding="UTF-8"?>
<svg width="646px" height="68px" viewBox="0 0 646 68" version="1.1" xmlns="http://www.w3.org/2000/svg" xmlns:xlink="http://www.w3.org/1999/xlink">
    <!-- Generator: Sketch 59 (86127) - https://sketch.com -->
    <title>Group 46</title>
    <desc>Created with Sketch.</desc>
    <defs>
        <polygon id="path-1" points="0 0.7774 64.5668 0.7774 64.5668 14.7257739 0 14.7257739"></polygon>
        <polygon id="path-3" points="0.8611 0.165 12.2451 0.165 12.2451 8.6402 0.8611 8.6402"></polygon>
        <polygon id="path-5" points="0 68.835 645.294 68.835 645.294 1 0 1"></polygon>
    </defs>
    <g id="Page-1" stroke="none" stroke-width="1" fill="none" fill-rule="evenodd">
        <g id="Green-light" transform="translate(-323.000000, -99.000000)">
            <g id="Group-46" transform="translate(323.000000, 98.000000)">
                <path d="M39.8606,36.3717 C33.6486,38.7057 27.4356,41.1117 21.1876,43.3747 C18.5296,44.3447 15.7286,45.0257 12.8556,44.8467 C10.7016,44.7027 8.5826,44.2007 7.5416,41.9747 C6.9666,40.7177 6.6076,39.3517 6.0686,37.9157 C3.7706,39.9987 1.8676,42.5847 0.2156,45.4577 C0.4666,45.6007 0.6466,45.7447 0.8616,45.8157 C3.3756,46.5707 5.8896,47.3607 8.4386,48.0427 C9.5516,48.3297 10.7736,48.5817 11.8506,48.4737 C14.1126,48.1857 16.4466,47.8277 18.6016,47.1087 C22.6596,45.7807 26.6096,44.1647 30.6316,42.6917 C34.5816,41.2197 38.4956,39.5317 42.5536,38.4187 C45.9296,37.4847 49.3766,37.7717 52.6086,39.4247 C55.4816,40.8957 56.5586,43.3027 55.7336,46.4627 C55.5536,47.0727 55.3016,47.6477 55.0506,48.3297 C58.3906,47.7557 61.5146,47.0727 64.6386,45.4577 C63.2746,43.5547 62.0536,41.7587 60.7246,40.1067 C58.3546,37.0907 55.2666,35.1147 51.4236,34.6847 C50.7056,34.6117 49.9876,34.5767 49.2696,34.5767 C46.0376,34.5047 42.9126,35.2587 39.8606,36.3717" id="Fill-1" fill="#5BBD71"></path>
                <g id="Group-5" transform="translate(0.000000, 20.835000)">
                    <mask id="mask-2" fill="white">
                        <use xlink:href="#path-1"></use>
                    </mask>
                    <g id="Clip-4"></g>
                    <path d="M-0.0002,3.5064 C0.3948,4.1894 0.5748,4.4764 0.7538,4.7634 C2.0108,6.4154 3.2318,8.0314 4.4888,9.6484 C6.2488,11.9454 8.5468,13.4534 11.3118,14.1724 C15.0468,15.1774 18.7808,14.7104 22.3728,13.5974 C25.2088,12.6994 27.9378,11.5864 30.7398,10.5454 C34.1868,9.2524 37.5988,7.8524 41.0458,6.6314 C44.5288,5.4094 48.0478,4.1894 51.8188,4.4044 C55.0868,4.6194 56.8818,5.5894 57.9238,8.8214 C58.1748,9.6484 58.2108,10.5454 58.3908,11.5864 C60.8328,9.2164 62.8078,6.6664 64.5668,3.6144 C62.8438,3.0044 61.3348,2.4294 59.7908,1.9624 C56.2718,0.8494 52.6088,0.4904 49.0178,1.2444 C43.8108,2.3584 38.9628,4.5844 34.0068,6.5234 C30.3448,7.9594 26.7178,9.5034 22.9468,10.6164 C19.2478,11.6944 15.4778,11.5864 11.9218,9.7194 C9.5518,8.4984 7.6848,5.6974 8.9418,2.5374 C9.1568,2.0344 9.4088,1.5684 9.6238,1.0654 C9.5518,0.9574 9.5168,0.8494 9.4448,0.7774 C6.3918,1.6754 3.3038,2.5724 -0.0002,3.5064" id="Fill-3" fill="#5BBD71" mask="url(#mask-2)"></path>
                </g>
                <path d="M12.6766,16.8366 C12.7126,17.6266 13.0716,18.4526 13.5026,19.0996 C14.8306,21.1816 16.9856,21.9716 19.2836,22.1876 C24.4196,22.7266 29.0516,21.0376 33.5766,18.7396 C36.5936,17.2316 39.6096,15.6876 42.8056,14.6096 C45.7856,13.6046 48.7666,13.9996 50.9926,16.6926 C51.2086,16.9436 51.4956,17.1596 51.7466,17.4106 C51.8906,17.3756 52.0346,17.3396 52.1776,17.2676 L52.1776,7.6436 C47.7606,8.5056 43.8466,10.4086 40.0756,12.6706 C36.1976,15.0056 32.2836,17.2676 27.9026,18.7036 C24.9576,19.6736 22.0496,19.6016 19.1766,18.5606 C16.6266,17.6266 16.0876,15.4366 17.8836,13.4606 C18.0276,13.3166 18.2426,13.1736 18.4226,13.0656 C19.4996,12.3836 20.6126,11.7016 22.0126,10.8396 C18.7096,9.6546 15.6566,8.5416 12.2456,7.2846 C12.3886,10.7326 12.4606,13.7836 12.6766,16.8366" id="Fill-6" fill="#5BBD71"></path>
                <path d="M41.261,47.8629 C36.772,48.2949 32.858,50.4489 28.872,52.3879 C26.681,53.4659 24.491,54.6859 22.157,55.3689 C20.505,55.8359 18.53,55.8719 16.878,55.4399 C15.406,55.0459 14.149,53.7529 12.784,52.8189 C12.03,55.9069 12.497,59.1389 12.353,62.3709 C12.605,62.4069 12.748,62.4429 12.892,62.4069 C16.555,61.4369 20.074,60.0729 23.378,58.1339 C26.933,56.0869 30.524,54.1119 34.187,52.3519 C37.85,50.5919 41.692,49.8019 45.678,51.6339 C46.863,52.1729 47.761,52.8899 47.905,54.1829 C48.048,55.4049 47.258,56.2659 46.289,56.9129 C45.211,57.6309 44.062,58.3129 42.698,59.2109 C45.929,60.3959 49.018,61.4729 52.286,62.6589 C52.286,59.6769 52.465,57.0199 52.214,54.4349 C52.07,52.7469 51.675,51.0229 50.095,49.7309 C48.192,48.1509 45.966,47.7189 43.703,47.7189 C42.913,47.7189 42.087,47.7919 41.261,47.8629" id="Fill-8" fill="#5BBD71"></path>
                <path d="M26.9329,60.8268 C28.1539,63.8068 30.1289,66.3208 32.3549,68.8348 C34.5459,66.3928 36.4849,63.8438 37.7779,60.8268 L26.9329,60.8268 Z" id="Fill-10" fill="#5BBD71"></path>
                <g id="Group-14" transform="translate(26.000000, 0.835000)">
                    <mask id="mask-4" fill="white">
                        <use xlink:href="#path-3"></use>
                    </mask>
                    <g id="Clip-13"></g>
                    <path d="M0.8611,8.6402 C4.6681,7.9212 8.2231,8.0302 12.2451,8.6402 C10.2341,5.6952 8.4021,2.9662 6.4991,0.1642 C4.1651,2.8942 2.2261,5.4802 0.8611,8.6402" id="Fill-12" fill="#5BBD71" mask="url(#mask-4)"></path>
                </g>
                <path d="M231.2693,19.2477 C233.4463,19.2477 235.5283,19.2077 237.6053,19.2857 C237.9743,19.2997 238.4033,19.7447 238.6703,20.0937 C243.4103,26.2667 248.1273,32.4547 252.8513,38.6397 C253.0203,38.8607 253.1993,39.0747 253.5343,39.4937 L253.5343,19.3467 L260.7963,19.3467 L260.7963,52.5187 C258.8303,52.5187 256.8383,52.5657 254.8543,52.4767 C254.5013,52.4597 254.1253,51.9117 253.8453,51.5457 C249.0893,45.3357 244.3473,39.1147 239.5993,32.8977 C239.3413,32.5607 239.0593,32.2427 238.5903,31.6777 L238.5903,52.4307 L231.2693,52.4307 L231.2693,19.2477 Z" id="Fill-15" fill="#000000"></path>
                <path d="M136.9187,35.318 C139.8087,35.318 142.5797,35.431 145.3357,35.28 C147.3357,35.172 148.9607,34.203 149.6007,32.139 C150.5997,28.92 148.6987,26.184 145.1867,25.979 C142.5477,25.825 139.8937,25.933 137.2457,25.934 C137.1437,25.934 137.0417,26.032 136.9187,26.094 L136.9187,35.318 Z M129.5747,19.245 L132.4857,19.245 C136.7877,19.245 141.0907,19.198 145.3917,19.26 C148.5947,19.307 151.5417,20.133 154.0937,22.241 C158.4787,25.86 159.2557,36.534 151.3737,40.161 C151.0487,40.31 150.7247,40.464 150.2537,40.683 C152.9207,44.582 155.5537,48.429 158.2787,52.413 C157.8437,52.465 157.5487,52.531 157.2547,52.532 C155.0837,52.541 152.9117,52.501 150.7417,52.556 C149.9547,52.576 149.5157,52.296 149.0907,51.656 C147.0917,48.651 145.0237,45.693 143.0187,42.692 C142.6187,42.094 142.1967,41.821 141.4577,41.85 C139.9817,41.908 138.5017,41.867 136.8937,41.867 L136.8937,52.465 L129.5747,52.465 L129.5747,19.245 Z" id="Fill-17" fill="#000000"></path>
                <path d="M116.4358,28.8541 C114.4498,27.2601 112.3948,26.0151 109.8718,25.6271 C103.9168,24.7141 98.8088,28.6361 98.2328,34.6441 C97.7128,40.0761 100.5068,44.6051 105.3048,45.9691 C108.4218,46.8561 111.4228,46.4001 114.2908,44.9261 C114.8888,44.6191 115.1668,44.2321 115.1288,43.5191 C115.0628,42.2911 115.1108,41.0571 115.1108,39.7011 L107.7418,39.7011 L107.7418,33.4371 L122.2308,33.4371 L122.2308,36.2101 C122.2298,39.7781 122.2488,43.3461 122.2068,46.9141 C122.2018,47.3701 122.0088,47.9691 121.6838,48.2541 C115.8278,53.4081 105.9148,54.6201 99.1818,51.0491 C92.9148,47.7261 89.4258,40.5451 90.6098,33.4041 C91.8618,25.8501 97.3248,20.1071 104.4918,18.9911 C110.2708,18.0911 115.7078,18.8981 120.4158,22.6971 C120.6008,22.8461 120.7698,23.0151 121.0558,23.2741 C119.5168,25.1321 117.9948,26.9711 116.4358,28.8541" id="Fill-19" fill="#000000"></path>
                <path d="M332.5184,39.736 L332.5184,33.453 L346.9964,33.453 L346.9964,34.965 C346.9964,38.934 347.0124,42.904 346.9734,46.874 C346.9684,47.33 346.7844,47.929 346.4624,48.216 C340.7744,53.298 331.1334,54.579 324.2834,51.236 C317.5194,47.936 314.4684,40.859 315.2844,34.066 C316.4374,24.454 323.8454,18.375 333.7234,18.681 C338.2524,18.822 342.3014,20.144 345.7904,23.272 C344.2334,25.146 342.7034,26.986 341.1404,28.866 C338.9824,27.019 336.6374,25.815 333.8554,25.51 C327.3984,24.803 322.0994,30.465 322.9524,37.192 C324.0884,46.173 332.8644,48.257 339.0304,44.882 C339.3594,44.701 339.7394,44.268 339.7594,43.932 C339.8424,42.581 339.7934,41.22 339.7934,39.736 L332.5184,39.736 Z" id="Fill-21" fill="#000000"></path>
                <polygon id="Fill-23" fill="#000000" points="198.1639 52.4274 198.1639 19.3234 223.2319 19.3234 223.2319 25.7654 205.5909 25.7654 205.5909 32.4544 221.1569 32.4544 221.1569 39.0514 205.5609 39.0514 205.5609 45.8954 223.4629 45.8954 223.4629 52.4274"></polygon>
                <polygon id="Fill-25" fill="#000000" points="190.4378 45.9069 190.4378 52.4589 165.1468 52.4589 165.1468 19.3409 190.1968 19.3409 190.1968 25.8079 172.5128 25.8079 172.5128 32.4719 188.0258 32.4719 188.0258 39.0449 172.5128 39.0449 172.5128 45.9069"></polygon>
                <polygon id="Fill-27" fill="#000000" points="354.5037 19.2809 361.7917 19.2809 361.7917 32.3129 375.2477 32.3129 375.2477 19.3409 382.5877 19.3409 382.5877 52.4579 375.2807 52.4579 375.2807 39.2539 361.8547 39.2539 361.8547 52.4449 354.5037 52.4449"></polygon>
                <path d="M417.0106,19.3414 L417.0106,26.0394 L407.0106,26.0394 L407.0106,52.4384 L399.5586,52.4384 L399.5586,51.0214 C399.5586,43.1194 399.5396,35.2184 399.5806,27.3184 C399.5856,26.3054 399.2856,26.0194 398.2926,26.0444 C395.8016,26.1094 393.3066,26.0664 390.8136,26.0664 L389.4736,26.0664 L389.4736,19.3414 L417.0106,19.3414 Z" id="Fill-29" fill="#000000"></path>
                <path d="M473.1805,19.2487 C474.2135,19.2487 475.2195,19.1597 476.1975,19.2897 C476.6215,19.3457 477.0695,19.7847 477.3675,20.1597 C483.7135,28.1827 490.0415,36.2207 496.3735,44.2547 C496.6925,44.6577 497.0185,45.0537 497.5175,45.6717 L497.5175,19.3317 L501.1935,19.3317 L501.1935,52.4307 C499.4815,52.7177 498.1745,52.5707 496.9365,50.9617 C490.6035,42.7267 484.1115,34.6117 477.6725,26.4567 C477.4605,26.1877 477.2275,25.9367 476.8365,25.4827 L476.8365,52.4567 L473.1805,52.4567 L473.1805,19.2487 Z" id="Fill-31" fill="#000000"></path>
                <path d="M548.282,22.6412 C548.282,27.1352 548.268,31.3302 548.32,35.5242 C548.323,35.7432 548.88,36.1362 549.182,36.1402 C552.513,36.1842 555.846,36.2272 559.177,36.1462 C561.611,36.0862 563.885,35.4042 565.529,33.4722 C568.847,29.5732 566.725,23.8432 561.43,23.1412 C557.165,22.5762 552.796,22.7832 548.282,22.6412 M572.115,52.5212 C570.463,52.5212 569.069,52.5762 567.686,52.4812 C567.354,52.4582 567.003,51.9812 566.75,51.6452 C563.925,47.8982 561.123,44.1322 558.293,40.3892 C558.052,40.0702 557.647,39.6652 557.312,39.6592 C554.348,39.6012 551.384,39.6252 548.309,39.6252 L548.309,52.4332 L544.488,52.4332 L544.488,19.4272 C544.607,19.3602 544.675,19.2882 544.742,19.2882 C550.365,19.3362 556.001,19.1742 561.607,19.5092 C566.432,19.7972 569.95,23.0392 570.687,27.1312 C571.657,32.5072 569.133,36.7272 563.918,38.4312 C563.31,38.6292 562.69,38.7872 561.936,39.0042 C565.307,43.4812 568.624,47.8842 572.115,52.5212" id="Fill-33" fill="#000000"></path>
                <polygon id="Fill-35" fill="#000000" points="293.4412 52.4645 269.6002 52.4645 269.6002 19.3135 276.8662 19.3135 276.8662 45.7315 293.4412 45.7315"></polygon>
                <path d="M607.7596,23.153 C606.9536,24.099 606.1806,25.007 605.3596,25.972 C605.0106,25.715 604.6956,25.492 604.3916,25.254 C599.9576,21.777 593.7336,21.185 589.1066,23.802 C584.6206,26.339 581.9476,32.079 582.6326,37.6 C583.2906,42.9 585.6776,46.987 590.9136,48.833 C595.7456,50.537 600.3326,49.672 604.5676,46.867 C604.8706,46.666 605.2486,46.281 605.2546,45.975 C605.3106,43.423 605.2866,40.868 605.2866,38.196 L595.2496,38.196 L595.2496,34.809 L608.9216,34.809 C608.9506,35.15 608.9986,35.455 608.9996,35.76 C609.0046,39.529 609.0176,43.298 608.9856,47.065 C608.9816,47.496 608.8546,48.079 608.5606,48.332 C602.5846,53.484 593.5066,54.684 586.9456,51.002 C580.7506,47.524 578.4186,41.875 578.6226,35.061 C578.9346,24.641 587.8646,17.319 598.2386,18.807 C601.5406,19.282 604.5096,20.447 607.1046,22.541 C607.3176,22.714 607.5066,22.916 607.7596,23.153" id="Fill-37" fill="#000000"></path>
                <polygon id="Fill-39" fill="#000000" points="440.1053 19.2799 464.0433 19.2799 464.0433 22.6479 443.8983 22.6479 443.8983 33.9409 461.8763 33.9409 461.8763 37.4959 443.8663 37.4959 443.8663 48.9859 464.2903 48.9859 464.2903 52.4589 440.1053 52.4589"></polygon>
                <polygon id="Fill-41" fill="#000000" points="511.4158 52.4489 511.4158 19.3489 535.4138 19.3489 535.4138 22.6989 515.2378 22.6989 515.2378 33.9769 533.3018 33.9769 533.3018 37.4789 515.2578 37.4789 515.2578 49.0419 535.6658 49.0419 535.6658 52.4489"></polygon>
                <mask id="mask-6" fill="white">
                    <use xlink:href="#path-5"></use>
                </mask>
                <g id="Clip-44"></g>
                <polygon id="Fill-43" fill="#000000" mask="url(#mask-6)" points="300.511 52.451 307.843 52.451 307.843 19.31 300.511 19.31"></polygon>
                <path d="M645.2938,19.2448 C644.4988,20.4098 643.8568,21.3608 643.2038,22.3058 C639.5558,27.5818 635.9198,32.8658 632.2378,38.1188 C631.6528,38.9528 631.4138,39.7748 631.4258,40.7828 C631.4708,44.6278 631.4438,48.4738 631.4438,52.4288 L627.5828,52.4288 L627.5828,51.1378 C627.5818,47.5688 627.6108,44.0018 627.5558,40.4338 C627.5458,39.8058 627.3178,39.0908 626.9628,38.5698 C622.9228,32.6408 618.8368,26.7408 614.7648,20.8328 C614.4538,20.3838 614.1488,19.9298 613.6888,19.2528 C615.2838,19.2528 616.6318,19.1988 617.9698,19.2908 C618.2988,19.3128 618.6688,19.7568 618.8968,20.0908 C622.1908,24.9278 625.4658,29.7788 628.7448,34.6268 C628.9678,34.9558 629.1978,35.2798 629.5218,35.7468 C629.8298,35.3278 630.0898,34.9958 630.3268,34.6478 C633.6268,29.8148 636.9398,24.9898 640.2038,20.1338 C640.6688,19.4418 641.1678,19.1808 641.9758,19.2298 C642.9748,19.2928 643.9818,19.2448 645.2938,19.2448" id="Fill-45" fill="#000000" mask="url(#mask-6)"></path>
            </g>
        </g>
    </g>
</svg>